PathFileType	4	(X/Y/Z)	C:\Users\italobelli\Desktop\GitHub\PTbot_officialCBL\Personal_Results\ABD02_noisy1.trc
DataRate	CameraRate	NumFrames	NumMarkers	Units	OrigDataRate	OrigDataStartFrame	OrigNumFrames
106.125000	106.125000	51	9	m	106.125000	107	850
Frame#	Time		gu		centelbow		EpL		centpxt8		centijc7		ij		ts		aa		ai
			X1	Y1	Z1	X2	Y2	Z2	X3	Y3	Z3	X4	Y4	Z4	X5	Y5	Z5	X6	Y6	Z6	X7	Y7	Z7	X8	Y8	Z8	X9	Y9	Z9

107	0.99882	-0.097433	-0.0087285	0.16686	-0.143	-0.25048	0.19606	-0.14235	-0.24375	0.22759	-0.046816	-0.15316	-0.008669	-0.046816	0.031938	-0.008669	0	0	0	-0.13393	0.026992	0.04078	-0.12912	0.027459	0.15995	-0.14904	-0.085337	0.047047
108	1.0082	-0.097445	-0.0087198	0.16685	-0.1431	-0.25053	0.1963	-0.14247	-0.24379	0.22784	-0.046816	-0.15316	-0.008669	-0.046816	0.031938	-0.008669	0	0	0	-0.13392	0.02699	0.040766	-0.12913	0.027462	0.15994	-0.14903	-0.08534	0.047043
109	1.0177	-0.097468	-0.0086985	0.16682	-0.14324	-0.25056	0.19662	-0.14265	-0.24379	0.22816	-0.046816	-0.15316	-0.008669	-0.046816	0.031938	-0.008669	0	0	0	-0.1339	0.026982	0.040735	-0.12915	0.027473	0.15992	-0.14901	-0.085348	0.04704
110	1.0271	-0.097502	-0.0086645	0.16678	-0.14343	-0.25055	0.19701	-0.14291	-0.24376	0.22854	-0.046816	-0.15316	-0.008669	-0.046816	0.031938	-0.008669	0	0	0	-0.13387	0.026969	0.040686	-0.12917	0.027491	0.15988	-0.14899	-0.085362	0.047039
111	1.0365	-0.097545	-0.0086182	0.16672	-0.14367	-0.25051	0.19747	-0.14323	-0.24368	0.22898	-0.046816	-0.15316	-0.008669	-0.046816	0.031938	-0.008669	0	0	0	-0.13385	0.026952	0.040621	-0.1292	0.027517	0.15983	-0.14897	-0.085382	0.04704
112	1.0459	-0.097599	-0.0085596	0.16664	-0.14395	-0.25045	0.198	-0.14362	-0.24356	0.22948	-0.046816	-0.15316	-0.008669	-0.046816	0.031938	-0.008669	0	0	0	-0.13382	0.026929	0.040541	-0.12924	0.027551	0.15977	-0.14894	-0.085406	0.047041
113	1.0554	-0.097662	-0.0084891	0.16656	-0.14427	-0.25035	0.19859	-0.14407	-0.2434	0.23005	-0.046816	-0.15316	-0.008669	-0.046816	0.031938	-0.008669	0	0	0	-0.13379	0.026902	0.040445	-0.12928	0.027591	0.15969	-0.14892	-0.085435	0.047044
114	1.0648	-0.097734	-0.0084069	0.16646	-0.14463	-0.25023	0.19925	-0.14458	-0.24321	0.23067	-0.046816	-0.15316	-0.008669	-0.046816	0.031938	-0.008669	0	0	0	-0.13375	0.02687	0.040334	-0.12932	0.027639	0.15961	-0.14889	-0.085469	0.047048
115	1.0742	-0.097814	-0.0083131	0.16634	-0.14503	-0.25008	0.19998	-0.14514	-0.24298	0.23134	-0.046816	-0.15316	-0.008669	-0.046816	0.031938	-0.008669	0	0	0	-0.13371	0.026833	0.04021	-0.12937	0.027695	0.15951	-0.14885	-0.085508	0.047054
116	1.0836	-0.097903	-0.008208	0.16621	-0.14547	-0.2499	0.20077	-0.14575	-0.24271	0.23207	-0.046816	-0.15316	-0.008669	-0.046816	0.031938	-0.008669	0	0	0	-0.13367	0.026791	0.040072	-0.12943	0.027757	0.1594	-0.14882	-0.085552	0.04706
117	1.0931	-0.097999	-0.0080919	0.16608	-0.14594	-0.24969	0.20161	-0.14642	-0.24241	0.23285	-0.046816	-0.15316	-0.008669	-0.046816	0.031938	-0.008669	0	0	0	-0.13363	0.026746	0.039922	-0.12948	0.027826	0.15928	-0.14878	-0.085599	0.047069
118	1.1025	-0.098103	-0.0079648	0.16592	-0.14645	-0.24946	0.20252	-0.14714	-0.24207	0.23368	-0.046816	-0.15316	-0.008669	-0.046816	0.031938	-0.008669	0	0	0	-0.13359	0.026695	0.03976	-0.12955	0.027901	0.15915	-0.14874	-0.085651	0.047078
119	1.1119	-0.098214	-0.007827	0.16576	-0.14698	-0.2492	0.20348	-0.1479	-0.24169	0.23456	-0.046816	-0.15316	-0.008669	-0.046816	0.031938	-0.008669	0	0	0	-0.13354	0.02664	0.039587	-0.12961	0.027984	0.15902	-0.1487	-0.085707	0.047089
120	1.1213	-0.098331	-0.0076789	0.16559	-0.14755	-0.24891	0.20449	-0.14871	-0.24128	0.23549	-0.046816	-0.15316	-0.008669	-0.046816	0.031938	-0.008669	0	0	0	-0.13349	0.026581	0.039403	-0.12968	0.028072	0.15887	-0.14865	-0.085767	0.047102
121	1.1307	-0.098454	-0.0075204	0.16541	-0.14815	-0.2486	0.20556	-0.14956	-0.24084	0.23646	-0.046816	-0.15316	-0.008669	-0.046816	0.031938	-0.008669	0	0	0	-0.13344	0.026518	0.039209	-0.12976	0.028167	0.15871	-0.1486	-0.085831	0.047115
122	1.1402	-0.098583	-0.007352	0.16521	-0.14877	-0.24826	0.20668	-0.15045	-0.24036	0.23748	-0.046816	-0.15316	-0.008669	-0.046816	0.031938	-0.008669	0	0	0	-0.13338	0.026451	0.039006	-0.12983	0.028269	0.15854	-0.14855	-0.085898	0.047131
123	1.1496	-0.098717	-0.0071737	0.16501	-0.14942	-0.2479	0.20784	-0.15137	-0.23985	0.23853	-0.046816	-0.15316	-0.008669	-0.046816	0.031938	-0.008669	0	0	0	-0.13332	0.026379	0.038794	-0.12991	0.028376	0.15837	-0.1485	-0.085969	0.047147
124	1.159	-0.098856	-0.0069859	0.1648	-0.15009	-0.24751	0.20905	-0.15233	-0.2393	0.23963	-0.046816	-0.15316	-0.008669	-0.046816	0.031938	-0.008669	0	0	0	-0.13327	0.026303	0.038574	-0.13	0.02849	0.15819	-0.14845	-0.086043	0.047166
125	1.1684	-0.098999	-0.0067887	0.16458	-0.15079	-0.2471	0.21031	-0.15332	-0.23873	0.24076	-0.046816	-0.15316	-0.008669	-0.046816	0.031938	-0.008669	0	0	0	-0.13321	0.026224	0.038346	-0.13008	0.02861	0.158	-0.14839	-0.08612	0.047185
126	1.1779	-0.099147	-0.0065823	0.16436	-0.1515	-0.24666	0.21161	-0.15434	-0.23812	0.24193	-0.046816	-0.15316	-0.008669	-0.046816	0.031938	-0.008669	0	0	0	-0.13314	0.02614	0.038112	-0.13017	0.028735	0.1578	-0.14833	-0.0862	0.047206
127	1.1873	-0.099298	-0.0063669	0.16412	-0.15224	-0.2462	0.21294	-0.15539	-0.23748	0.24314	-0.046816	-0.15316	-0.008669	-0.046816	0.031938	-0.008669	0	0	0	-0.13308	0.026053	0.037872	-0.13026	0.028866	0.1576	-0.14827	-0.086282	0.047229
128	1.1967	-0.099452	-0.0061429	0.16388	-0.15299	-0.24572	0.21432	-0.15646	-0.2368	0.24437	-0.046816	-0.15316	-0.008669	-0.046816	0.031938	-0.008669	0	0	0	-0.13301	0.025962	0.037626	-0.13036	0.029002	0.15739	-0.14821	-0.086368	0.047253
129	1.2061	-0.099609	-0.0059103	0.16363	-0.15375	-0.24521	0.21574	-0.15755	-0.2361	0.24564	-0.046816	-0.15316	-0.008669	-0.046816	0.031938	-0.008669	0	0	0	-0.13294	0.025867	0.037376	-0.13045	0.029144	0.15717	-0.14814	-0.086456	0.047279
130	1.2155	-0.099768	-0.0056694	0.16338	-0.15453	-0.24468	0.21718	-0.15866	-0.23537	0.24694	-0.046816	-0.15316	-0.008669	-0.046816	0.031938	-0.008669	0	0	0	-0.13288	0.025769	0.037121	-0.13055	0.029291	0.15694	-0.14808	-0.086546	0.047306
131	1.225	-0.099929	-0.0054205	0.16312	-0.15532	-0.24413	0.21867	-0.15979	-0.23461	0.24826	-0.046816	-0.15316	-0.008669	-0.046816	0.031938	-0.008669	0	0	0	-0.1328	0.025667	0.036863	-0.13065	0.029444	0.15672	-0.14801	-0.086638	0.047335
132	1.2344	-0.10009	-0.0051637	0.16285	-0.15612	-0.24356	0.22018	-0.16093	-0.23382	0.24961	-0.046816	-0.15316	-0.008669	-0.046816	0.031938	-0.008669	0	0	0	-0.13273	0.025562	0.036602	-0.13075	0.029601	0.15648	-0.14794	-0.086733	0.047365
133	1.2438	-0.10026	-0.0048992	0.16259	-0.15693	-0.24296	0.22172	-0.16209	-0.233	0.25098	-0.046816	-0.15316	-0.008669	-0.046816	0.031938	-0.008669	0	0	0	-0.13266	0.025453	0.036339	-0.13085	0.029763	0.15624	-0.14787	-0.086829	0.047397
134	1.2532	-0.10042	-0.0046273	0.16231	-0.15775	-0.24235	0.22329	-0.16325	-0.23215	0.25238	-0.046816	-0.15316	-0.008669	-0.046816	0.031938	-0.008669	0	0	0	-0.13258	0.025342	0.036075	-0.13095	0.029931	0.156	-0.14779	-0.086927	0.047431
135	1.2627	-0.10059	-0.0043482	0.16204	-0.15857	-0.24171	0.22489	-0.16443	-0.23127	0.25379	-0.046816	-0.15316	-0.008669	-0.046816	0.031938	-0.008669	0	0	0	-0.13251	0.025226	0.035809	-0.13106	0.030102	0.15575	-0.14772	-0.087027	0.047466
136	1.2721	-0.10075	-0.004062	0.16176	-0.1594	-0.24105	0.2265	-0.1656	-0.23037	0.25523	-0.046816	-0.15316	-0.008669	-0.046816	0.031938	-0.008669	0	0	0	-0.13243	0.025108	0.035544	-0.13116	0.030279	0.1555	-0.14764	-0.087128	0.047502
137	1.2815	-0.10091	-0.0037691	0.16147	-0.16023	-0.24038	0.22814	-0.16678	-0.22944	0.25668	-0.046816	-0.15316	-0.008669	-0.046816	0.031938	-0.008669	0	0	0	-0.13235	0.024987	0.035278	-0.13126	0.03046	0.15524	-0.14756	-0.08723	0.047541
138	1.2909	-0.10108	-0.0034696	0.16119	-0.16106	-0.23968	0.2298	-0.16796	-0.22848	0.25814	-0.046816	-0.15316	-0.008669	-0.046816	0.031938	-0.008669	0	0	0	-0.13227	0.024862	0.035014	-0.13137	0.030645	0.15499	-0.14748	-0.087333	0.047581
139	1.3004	-0.10124	-0.0031637	0.1609	-0.16188	-0.23897	0.23148	-0.16914	-0.2275	0.25962	-0.046816	-0.15316	-0.008669	-0.046816	0.031938	-0.008669	0	0	0	-0.13219	0.024735	0.034752	-0.13147	0.030835	0.15472	-0.1474	-0.087437	0.047622
140	1.3098	-0.1014	-0.0028517	0.16061	-0.16271	-0.23823	0.23317	-0.17031	-0.22649	0.26111	-0.046816	-0.15316	-0.008669	-0.046816	0.031938	-0.008669	0	0	0	-0.13211	0.024605	0.034491	-0.13158	0.031028	0.15446	-0.14731	-0.087542	0.047666
141	1.3192	-0.10156	-0.0025338	0.16033	-0.16353	-0.23748	0.23488	-0.17147	-0.22546	0.26261	-0.046816	-0.15316	-0.008669	-0.046816	0.031938	-0.008669	0	0	0	-0.13203	0.024472	0.034234	-0.13169	0.031226	0.15419	-0.14723	-0.087648	0.047711
142	1.3286	-0.10171	-0.0022101	0.16004	-0.16434	-0.23671	0.2366	-0.17263	-0.22441	0.26412	-0.046816	-0.15316	-0.008669	-0.046816	0.031938	-0.008669	0	0	0	-0.13194	0.024336	0.033981	-0.13179	0.031427	0.15393	-0.14714	-0.087754	0.047757
143	1.338	-0.10187	-0.001881	0.15975	-0.16515	-0.23592	0.23832	-0.17377	-0.22333	0.26563	-0.046816	-0.15316	-0.008669	-0.046816	0.031938	-0.008669	0	0	0	-0.13186	0.024197	0.033732	-0.13189	0.031632	0.15366	-0.14705	-0.08786	0.047806
144	1.3475	-0.10201	-0.0015466	0.15946	-0.16594	-0.23511	0.24006	-0.17489	-0.22222	0.26715	-0.046816	-0.15316	-0.008669	-0.046816	0.031938	-0.008669	0	0	0	-0.13178	0.024056	0.033487	-0.132	0.031841	0.15339	-0.14696	-0.087967	0.047856
145	1.3569	-0.10216	-0.0012071	0.15918	-0.16673	-0.23429	0.2418	-0.176	-0.2211	0.26867	-0.046816	-0.15316	-0.008669	-0.046816	0.031938	-0.008669	0	0	0	-0.13169	0.023913	0.033249	-0.1321	0.032053	0.15312	-0.14687	-0.088073	0.047908
146	1.3663	-0.1023	-0.00086274	0.15889	-0.1675	-0.23344	0.24355	-0.17709	-0.21995	0.27019	-0.046816	-0.15316	-0.008669	-0.046816	0.031938	-0.008669	0	0	0	-0.13161	0.023767	0.033017	-0.1322	0.032269	0.15284	-0.14678	-0.088179	0.047961
147	1.3757	-0.10244	-0.00051376	0.15861	-0.16825	-0.23259	0.2453	-0.17816	-0.21878	0.27171	-0.046816	-0.15316	-0.008669	-0.046816	0.031938	-0.008669	0	0	0	-0.13152	0.023618	0.032791	-0.1323	0.032488	0.15257	-0.14668	-0.088285	0.048017
148	1.3852	-0.10257	-0.00016036	0.15833	-0.169	-0.23171	0.24705	-0.1792	-0.21759	0.27323	-0.046816	-0.15316	-0.008669	-0.046816	0.031938	-0.008669	0	0	0	-0.13144	0.023468	0.032573	-0.1324	0.03271	0.1523	-0.14659	-0.088391	0.048074
149	1.3946	-0.10269	0.00019724	0.15805	-0.16972	-0.23083	0.2488	-0.18021	-0.21637	0.27474	-0.046816	-0.15316	-0.008669	-0.046816	0.031938	-0.008669	0	0	0	-0.13135	0.023315	0.032364	-0.13249	0.032935	0.15203	-0.14649	-0.088496	0.048133
150	1.404	-0.10281	0.00055883	0.15778	-0.17042	-0.22992	0.25054	-0.1812	-0.21514	0.27625	-0.046816	-0.15316	-0.008669	-0.046816	0.031938	-0.008669	0	0	0	-0.13126	0.02316	0.032163	-0.13259	0.033163	0.15176	-0.1464	-0.0886	0.048193
151	1.4134	-0.10293	0.0009242	0.15751	-0.1711	-0.229	0.25228	-0.18215	-0.21389	0.27774	-0.046816	-0.15316	-0.008669	-0.046816	0.031938	-0.008669	0	0	0	-0.13118	0.023003	0.031972	-0.13268	0.033394	0.1515	-0.1463	-0.088703	0.048256
152	1.4229	-0.10303	0.0012931	0.15724	-0.17176	-0.22807	0.25402	-0.18307	-0.21262	0.27923	-0.046816	-0.15316	-0.008669	-0.046816	0.031938	-0.008669	0	0	0	-0.13109	0.022844	0.031791	-0.13277	0.033627	0.15123	-0.1462	-0.088805	0.04832
153	1.4323	-0.10313	0.0016654	0.15698	-0.1724	-0.22712	0.25574	-0.18395	-0.21133	0.28071	-0.046816	-0.15316	-0.008669	-0.046816	0.031938	-0.008669	0	0	0	-0.13101	0.022683	0.03162	-0.13286	0.033863	0.15097	-0.1461	-0.088906	0.048386
154	1.4417	-0.10322	0.0020408	0.15673	-0.173	-0.22616	0.25745	-0.18479	-0.21002	0.28217	-0.046816	-0.15316	-0.008669	-0.046816	0.031938	-0.008669	0	0	0	-0.13092	0.02252	0.031461	-0.13294	0.034101	0.1507	-0.146	-0.089005	0.048454
155	1.4511	-0.10331	0.0024191	0.15648	-0.17358	-0.22518	0.25915	-0.18559	-0.20869	0.28362	-0.046816	-0.15316	-0.008669	-0.046816	0.031938	-0.008669	0	0	0	-0.13084	0.022355	0.031315	-0.13303	0.034342	0.15044	-0.14589	-0.089103	0.048524
156	1.4605	-0.10338	0.0028001	0.15624	-0.17413	-0.22419	0.26084	-0.18635	-0.20734	0.28505	-0.046816	-0.15316	-0.008669	-0.046816	0.031938	-0.008669	0	0	0	-0.13075	0.022189	0.031181	-0.13311	0.034585	0.15019	-0.14579	-0.089199	0.048596
157	1.47	-0.10345	0.0031836	0.156	-0.17465	-0.22319	0.26251	-0.18705	-0.20598	0.28646	-0.046816	-0.15316	-0.008669	-0.046816	0.031938	-0.008669	0	0	0	-0.13067	0.022021	0.03106	-0.13318	0.03483	0.14994	-0.14569	-0.089293	0.04867
